<?xml version="1.0" standalone="no"?><!DOCTYPE svg PUBLIC "-//W3C//DTD SVG 1.1//EN" "http://www.w3.org/Graphics/SVG/1.1/DTD/svg11.dtd"><svg t="1730959818058" class="icon" viewBox="0 0 1032 1024" version="1.1" xmlns="http://www.w3.org/2000/svg" p-id="30176" xmlns:xlink="http://www.w3.org/1999/xlink" width="201.5625" height="200"><path d="M89.1904 337.3056s14.9504-230.4 89.088-245.76c44.6464 7.3728 148.6848 44.6464 193.1264 104.0384 22.3232-14.9504 133.7344-29.696 297.1648-14.9504-59.392-7.3728-66.7648-7.3728-66.7648-7.3728S750.4896 32.768 809.8816 77.4144c22.3232 29.696 44.6464 170.8032 14.9504 185.7536 29.696 29.696 141.1072 185.7536 141.1072 327.68 0 52.0192 29.696 252.5184-178.3808 297.1648-111.4112 28.8768-386.2528 95.0272-631.6032-15.7696-51.8144-37.0688-155.8528-126.1568-103.8336-386.2528 44.4416-111.4112 37.0688-148.6848 37.0688-148.6848z" fill="#A6ABB1" p-id="30177"></path><path d="M466.0224 942.08a754.4832 754.4832 0 0 1-313.1392-63.0784h-1.2288c-40.96-28.672-162.6112-116.1216-106.9056-393.8304v-1.2288c42.5984-106.7008 36.864-143.36 36.6592-144.384a8.3968 8.3968 0 0 1 0-1.8432c1.6384-24.1664 17.408-236.544 95.0272-251.904h2.6624c40.96 6.7584 144.7936 40.96 193.9456 102.4 27.4432-11.8784 107.1104-22.7328 222.6176-17.8176 6.3488-5.9392 153.8048-144.9984 217.4976-97.0752l1.4336 1.4336c20.48 26.2144 38.2976 126.976 27.4432 172.6464a45.6704 45.6704 0 0 1-7.9872 18.0224c37.2736 40.96 137.8304 190.0544 137.8304 326.4512v17.6128c2.8672 66.9696 10.24 245.76-184.32 286.72A1241.9072 1241.9072 0 0 1 466.0224 942.08z m-307.2-76.1856c251.4944 114.0736 532.48 38.912 625.8688 14.1312 183.0912-39.3216 176.3328-202.1376 173.2608-271.7696v-18.2272c0-137.0112-109.568-292.2496-139.0592-321.7408a7.3728 7.3728 0 0 1 1.8432-11.8784 22.1184 22.1184 0 0 0 7.3728-14.336c9.4208-40.96-7.168-134.9632-24.3712-159.5392-40.96-28.8768-138.24 43.6224-184.32 85.4016l50.3808 5.9392a7.3728 7.3728 0 0 1-1.6384 14.7456c-169.1648-15.36-273.8176 1.2288-292.4544 13.7216a7.3728 7.3728 0 0 1-10.0352-1.6384c-40.96-55.7056-141.5168-92.9792-186.9824-100.9664-55.0912 13.5168-77.6192 174.6944-81.92 237.3632 0 7.168 3.4816 48.3328-37.4784 150.9376-53.248 266.4448 61.6448 350.0032 100.5568 377.856z" fill="#71212B" p-id="30178"></path><path d="M312.2176 538.0096a14.9504 14.9504 0 0 1-13.7216-20.48 64.9216 64.9216 0 0 1 38.912-35.4304 66.9696 66.9696 0 0 1 57.7536 14.336 14.9504 14.9504 0 0 1-17.2032 24.1664 39.5264 39.5264 0 0 0-32.3584-9.8304 36.2496 36.2496 0 0 0-20.48 18.432 14.9504 14.9504 0 0 1-12.9024 8.8064zM780.1856 515.6864a14.9504 14.9504 0 0 1-13.7216-9.0112 36.0448 36.0448 0 0 0-20.48-18.6368 39.7312 39.7312 0 0 0-32.1536 9.8304 14.9504 14.9504 0 0 1-17.2032-24.1664 66.9696 66.9696 0 0 1 57.7536-14.336 64.7168 64.7168 0 0 1 38.912 35.4304 14.9504 14.9504 0 0 1-13.7216 20.48z" fill="#71212B" p-id="30179"></path><path d="M371.4048 634.6752m-37.0688 0a37.0688 37.0688 0 1 0 74.1376 0 37.0688 37.0688 0 1 0-74.1376 0Z" fill="#71212B" p-id="30180"></path><path d="M772.608 612.352m-37.0688 0a37.0688 37.0688 0 1 0 74.1376 0 37.0688 37.0688 0 1 0-74.1376 0Z" fill="#71212B" p-id="30181"></path><path d="M207.9744 720.0768a74.3424 55.7056 0 1 0 148.6848 0 74.3424 55.7056 0 1 0-148.6848 0Z" fill="#F4A4BE" p-id="30182"></path><path d="M587.0592 686.4896m-141.1072 0a141.1072 141.1072 0 1 0 282.2144 0 141.1072 141.1072 0 1 0-282.2144 0Z" fill="#FFFFFF" p-id="30183"></path><path d="M762.7776 705.1264a64.3072 48.3328 0 1 0 128.6144 0 64.3072 48.3328 0 1 0-128.6144 0Z" fill="#F4A4BE" p-id="30184"></path><path d="M891.5968 656.7936a7.3728 7.3728 0 0 1-1.4336-14.7456c29.0816-5.5296 124.928-20.48 141.312 3.2768a7.3728 7.3728 0 1 1-12.288 8.192c-7.168-10.8544-71.0656-7.168-126.1568 3.2768zM1025.3312 723.7632a7.3728 7.3728 0 0 1-5.3248-2.2528c-7.7824-7.7824-65.1264-12.6976-113.664-12.6976a7.3728 7.3728 0 1 1 0-14.9504c25.1904 0 108.3392 1.2288 124.1088 16.9984a7.3728 7.3728 0 0 1-5.3248 12.6976zM988.0576 812.8512a7.3728 7.3728 0 0 1-6.5536-4.096c-20.48-40.96-89.9072-47.9232-90.7264-47.9232a7.3728 7.3728 0 0 1 1.4336-14.7456c3.2768 0 78.6432 8.3968 102.4 56.1152a7.3728 7.3728 0 0 1-6.5536 10.8544zM178.2784 671.744c-38.912-4.096-144.9984-13.5168-168.3456-7.5776a7.3728 7.3728 0 1 1-3.6864-14.336c30.72-7.5776 167.7312 6.5536 173.4656 7.168a7.3728 7.3728 0 0 1 0 14.7456zM155.9552 731.136H7.4752a7.3728 7.3728 0 1 1 0-14.9504h148.48a7.3728 7.3728 0 1 1 0 14.9504zM37.1712 827.8016a7.3728 7.3728 0 0 1-3.8912-13.7216 310.0672 310.0672 0 0 1 144.9984-38.2976 7.3728 7.3728 0 0 1 0 14.9504 300.4416 300.4416 0 0 0-137.216 36.0448 7.3728 7.3728 0 0 1-3.8912 1.024zM612.864 612.352a33.3824 33.3824 0 0 0-28.8768 16.7936 33.3824 33.3824 0 1 0 5.7344 40.96 33.3824 33.3824 0 1 0 23.1424-57.5488z" fill="#71212B" p-id="30185"></path><path d="M579.4816 656.7936h22.3232v59.392h-22.3232z" fill="#71212B" p-id="30186"></path><path d="M554.0864 745.0624h-1.2288a68.8128 68.8128 0 0 1-46.6944-32.1536 7.3728 7.3728 0 0 1 12.6976-7.9872s15.7696 24.7808 34.4064 25.1904a34.816 34.816 0 0 0 27.4432-18.2272 7.3728 7.3728 0 0 1 12.0832 8.6016 48.7424 48.7424 0 0 1-38.7072 24.576z" fill="#71212B" p-id="30187"></path><path d="M627.2 745.0624a48.7424 48.7424 0 0 1-38.912-24.3712 7.3728 7.3728 0 0 1 12.0832-8.6016 34.816 34.816 0 0 0 27.4432 18.2272c15.5648 0 30.1056-18.432 34.4064-25.1904a7.3728 7.3728 0 0 1 12.6976 7.7824 68.8128 68.8128 0 0 1-46.6944 32.1536z" fill="#71212B" p-id="30188"></path><path d="M178.2784 151.7568l81.7152 66.7648-81.7152 74.3424V159.1296" fill="#F4A4BE" p-id="30189"></path><path d="M178.2784 300.2368a7.3728 7.3728 0 0 1-4.9152-13.5168l75.3664-68.4032-75.1616-61.44a7.3728 7.3728 0 1 1 9.4208-11.4688l81.92 66.7648a7.3728 7.3728 0 0 1 0 11.264l-81.92 74.3424a7.3728 7.3728 0 0 1-4.7104 2.4576z" fill="#71212B" p-id="30190"></path><path d="M780.1856 107.1104l-81.7152 66.7648 81.7152 74.3424V114.4832" fill="#F4A4BE" p-id="30191"></path><path d="M780.1856 255.5904a7.3728 7.3728 0 0 1-4.9152-1.8432l-81.92-74.3424a7.3728 7.3728 0 0 1 0-11.264l81.92-66.7648a7.3728 7.3728 0 1 1 9.4208 11.4688l-74.9568 61.44 75.3664 68.4032a7.3728 7.3728 0 0 1-4.9152 12.9024z" fill="#71212B" p-id="30192"></path><path d="M408.6784 184.32s16.7936 131.072 16.384 190.464a20.48 20.48 0 0 0 36.864 9.216 94.8224 94.8224 0 0 0 6.144-39.5264V177.3568zM502.0672 177.9712c5.12 17.6128 39.1168 139.0592 29.4912 207.6672a40.96 40.96 0 0 0 16.7936 39.5264c11.6736 8.192 24.9856 7.3728 38.5024-28.0576 0-63.2832-16.5888-202.1376-18.432-217.4976a1.6384 1.6384 0 0 0-1.6384-1.4336l-63.0784-1.6384a1.6384 1.6384 0 0 0-1.6384 1.4336zM611.0208 177.7664s27.8528 152.3712 20.48 189.44c0 22.3232 29.696 37.0688 37.0688 0s-9.4208-186.9824-9.4208-186.9824z" fill="#646871" p-id="30193"></path><path d="M466.0224 942.08a754.4832 754.4832 0 0 1-313.1392-63.0784h-1.2288c-40.96-28.672-162.6112-116.1216-106.9056-393.8304v-1.2288c42.5984-106.7008 36.864-143.36 36.6592-144.384a8.3968 8.3968 0 0 1 0-1.8432c1.6384-24.1664 17.408-236.544 95.0272-251.904h2.6624c40.96 6.7584 144.7936 40.96 193.9456 102.4 27.4432-11.8784 107.1104-22.7328 222.6176-17.8176 6.3488-5.9392 153.8048-144.9984 217.4976-97.0752l1.4336 1.4336c20.48 26.2144 38.2976 126.976 27.4432 172.6464a45.6704 45.6704 0 0 1-7.9872 18.0224c37.2736 40.96 137.8304 190.0544 137.8304 326.4512v17.6128c2.8672 66.9696 10.24 245.76-184.32 286.72A1241.9072 1241.9072 0 0 1 466.0224 942.08z m-307.2-76.1856c251.4944 114.0736 532.48 38.912 625.8688 14.1312 183.0912-39.3216 176.3328-202.1376 173.2608-271.7696v-18.2272c0-137.0112-109.568-292.2496-139.0592-321.7408a7.3728 7.3728 0 0 1 1.8432-11.8784 22.1184 22.1184 0 0 0 7.3728-14.336c9.4208-40.96-7.168-134.9632-24.3712-159.5392-40.96-28.8768-138.24 43.6224-184.32 85.4016l50.3808 5.9392a7.3728 7.3728 0 0 1-1.6384 14.7456c-169.1648-15.36-273.8176 1.2288-292.4544 13.7216a7.3728 7.3728 0 0 1-10.0352-1.6384c-40.96-55.7056-141.5168-92.9792-186.9824-100.9664-55.0912 13.5168-77.6192 174.6944-81.92 237.3632 0 7.168 3.4816 48.3328-37.4784 150.9376-53.248 266.4448 61.6448 350.0032 100.5568 377.856z" fill="#71212B" p-id="30194"></path></svg>